<svg width="65" height="75" viewBox="0 0 65 75" fill="none" xmlns="http://www.w3.org/2000/svg">
<path d="M58.006 71.3898C58.0059 71.7707 57.508 71.9136 57.3058 71.5909L16.7872 6.83702C16.7804 6.82616 16.7757 6.81431 16.7706 6.80284C16.7677 6.79631 16.7637 6.79029 16.7599 6.78429L14.3439 3.06163C14.1806 2.80936 14.3616 2.47584 14.6622 2.47569H22.7931C22.9514 2.47589 23.0743 2.56981 23.1329 2.69444C23.1438 2.71764 23.1581 2.73948 23.1759 2.75792C23.1916 2.77419 23.2064 2.79176 23.2189 2.81163L50.4025 46.0206V2.76085C50.4025 2.55149 50.5721 2.3812 50.7814 2.38097H57.6095C57.819 2.38097 57.9894 2.55135 57.9894 2.76085V58.1046C58.0005 58.1406 58.0069 58.178 58.0069 58.2159L58.006 71.3898Z" fill="url(#paint0_linear_93_224)"/>
<path d="M10.4566 2.76353C10.4567 2.38263 10.9547 2.23963 11.1568 2.56236L51.6754 67.3163C51.682 67.3269 51.687 67.3382 51.692 67.3495C51.6949 67.3561 51.6988 67.3629 51.7027 67.369L54.1188 71.0917C54.2818 71.3439 54.1009 71.6774 53.8004 71.6776L45.6695 71.6776C45.5112 71.6774 45.3883 71.5835 45.3297 71.4588C45.3188 71.4356 45.3046 71.4139 45.2867 71.3954C45.271 71.3791 45.2563 71.3615 45.2438 71.3417L18.0602 28.1327L18.0602 71.3924C18.0601 71.6017 17.8905 71.7711 17.6813 71.7713L10.8531 71.7713C10.6437 71.7713 10.4733 71.6019 10.4733 71.3924L10.4733 16.0477C10.4623 16.012 10.4557 15.975 10.4557 15.9374L10.4566 2.76353Z" fill="url(#paint1_linear_93_224)"/>
<defs>
<linearGradient id="paint0_linear_93_224" x1="36.1233" y1="26.8109" x2="55.5077" y2="17.0238" gradientUnits="userSpaceOnUse">
<stop stop-color="#545454"/>
<stop offset="1" stop-color="#BABABA"/>
</linearGradient>
<linearGradient id="paint1_linear_93_224" x1="32.3393" y1="47.3419" x2="12.955" y2="57.1291" gradientUnits="userSpaceOnUse">
<stop stop-color="#545454"/>
<stop offset="1" stop-color="#BABABA"/>
</linearGradient>
</defs>
</svg>
